<svg width="48" height="48" viewBox="0 0 48 48" fill="none" xmlns="http://www.w3.org/2000/svg">
<path d="M0 24C0 10.7452 10.7452 0 24 0C37.2548 0 48 10.7452 48 24C48 37.2548 37.2548 48 24 48C10.7452 48 0 37.2548 0 24Z" fill="#3A5F56" fill-opacity="0.1"/>
<path d="M24 13.5C30.08 13.5 35.24 17 36 21.6011V21.7978C36 21.8371 35.96 21.8371 35.96 21.8764C35.92 21.8764 35.92 21.9157 35.92 21.9551C35.92 21.9551 35.92 21.9944 35.88 21.9944C35.84 21.9944 35.84 22.0337 35.8 22.0337C35.76 22.073 35.76 22.073 35.72 22.073H32.96V33.7135H33.76C34 33.7135 34.16 33.8708 34.16 34.1067C34.16 34.3427 34 34.5 33.76 34.5H26.96C26.72 34.5 26.56 34.3427 26.56 34.1067C26.56 33.8708 26.72 33.7135 26.96 33.7135H27.92V22.073H20.2V33.6742H21.08C21.32 33.6742 21.48 33.8315 21.48 34.0674C21.48 34.3034 21.32 34.4607 21.08 34.4607H14.28C14.04 34.4607 13.88 34.3034 13.88 34.0674C13.88 33.8315 14.04 33.6742 14.28 33.6742H15.16V22.0337H12.2C12.16 22.0337 12.12 21.9944 12.12 21.9944L12.1096 21.9842L12.08 21.9551C12.08 21.9157 12.04 21.9157 12.04 21.8764C12 21.8371 12 21.8371 12 21.7978V21.6011C12.76 17 17.92 13.5 24 13.5ZM19.4 22.073H16V33.7135H19.4V22.073ZM32.12 22.073H28.72V33.7135H32.12V22.073ZM24 14.2865C18.52 14.2865 13.84 17.2753 12.88 21.2865H35.12C34.16 17.2753 29.48 14.2865 24 14.2865ZM26.32 18.1011C26.56 18.1011 26.72 18.2584 26.72 18.4944C26.72 18.7303 26.56 18.8876 26.32 18.8876H21.72C21.48 18.8876 21.32 18.7303 21.32 18.4944C21.32 18.2584 21.48 18.1011 21.72 18.1011H26.32Z" fill="#3A5F56"/>
</svg>
