<svg width="19" height="18" viewBox="0 0 19 18" fill="none" xmlns="http://www.w3.org/2000/svg">
<path d="M0 9C0 4.02944 4.02944 0 9 0H10C14.9706 0 19 4.02944 19 9V9C19 13.9706 14.9706 18 10 18H9C4.02944 18 0 13.9706 0 9V9Z" fill="white"/>
<path d="M11.9653 8.4668V9.65918C11.9653 10.3001 11.908 10.8408 11.7935 11.2812C11.6789 11.7217 11.5142 12.0762 11.2993 12.3447C11.0845 12.6133 10.8249 12.8084 10.5205 12.9302C10.2197 13.0483 9.87956 13.1074 9.5 13.1074C9.19922 13.1074 8.92171 13.0698 8.66748 12.9946C8.41325 12.9194 8.18408 12.7995 7.97998 12.6348C7.77946 12.4665 7.60758 12.248 7.46436 11.9795C7.32113 11.7109 7.21191 11.3851 7.13672 11.002C7.06152 10.6188 7.02393 10.1712 7.02393 9.65918V8.4668C7.02393 7.82585 7.08122 7.28874 7.1958 6.85547C7.31396 6.4222 7.48047 6.07487 7.69531 5.81348C7.91016 5.5485 8.16797 5.35872 8.46875 5.24414C8.77311 5.12956 9.11328 5.07227 9.48926 5.07227C9.79362 5.07227 10.0729 5.10986 10.3271 5.18506C10.585 5.25667 10.8141 5.37305 11.0146 5.53418C11.2152 5.69173 11.3853 5.90299 11.5249 6.16797C11.6681 6.42936 11.7773 6.74984 11.8525 7.12939C11.9277 7.50895 11.9653 7.95475 11.9653 8.4668ZM10.9663 9.82031V8.30029C10.9663 7.94938 10.9448 7.64144 10.9019 7.37646C10.8625 7.10791 10.8034 6.87874 10.7246 6.68896C10.6458 6.49919 10.5456 6.34521 10.4238 6.22705C10.3057 6.10889 10.1678 6.02295 10.0103 5.96924C9.85628 5.91195 9.68262 5.8833 9.48926 5.8833C9.25293 5.8833 9.04346 5.92806 8.86084 6.01758C8.67822 6.10352 8.52425 6.24137 8.39893 6.43115C8.27718 6.62093 8.18408 6.86979 8.11963 7.17773C8.05518 7.48568 8.02295 7.85986 8.02295 8.30029V9.82031C8.02295 10.1712 8.04264 10.481 8.08203 10.7495C8.125 11.0181 8.18766 11.2508 8.27002 11.4478C8.35238 11.6411 8.45264 11.8005 8.5708 11.9258C8.68896 12.0511 8.82503 12.1442 8.979 12.2051C9.13656 12.2624 9.31022 12.291 9.5 12.291C9.74349 12.291 9.95654 12.2445 10.1392 12.1514C10.3218 12.0583 10.474 11.9132 10.5957 11.7163C10.721 11.5158 10.8141 11.2598 10.875 10.9482C10.9359 10.6331 10.9663 10.2572 10.9663 9.82031Z" fill="#3A5F56"/>
</svg>
