<svg width="48" height="48" viewBox="0 0 48 48" fill="none" xmlns="http://www.w3.org/2000/svg">
<path d="M0 24C0 10.7452 10.7452 0 24 0C37.2548 0 48 10.7452 48 24C48 37.2548 37.2548 48 24 48C10.7452 48 0 37.2548 0 24Z" fill="#3A5F56" fill-opacity="0.1"/>
<g clip-path="url(#clip0_2_130)">
<path d="M34.5933 21.9785C34.9931 21.9785 35.3529 22.1355 35.6327 22.4103C35.9125 22.685 36.0325 23.0383 35.9925 23.4308C35.7526 26.0607 34.5533 28.5336 32.6344 30.4178C31.9148 31.1636 31.0753 31.7523 30.1958 32.2626V32.6551C30.1958 33.6757 29.3563 34.5 28.3169 34.5H19.6818C18.6424 34.5 17.8028 33.6757 17.8028 32.6551V32.2626C14.5247 30.4178 12.3659 27.1206 12.0061 23.4308C11.9661 23.0776 12.1261 22.685 12.3659 22.4103C12.6458 22.1355 13.0056 21.9785 13.4053 21.9785H34.5933ZM34.2335 26.7673H13.7251C14.6846 28.8084 16.3237 30.5355 18.4025 31.6738C18.5224 31.7523 18.6024 31.8701 18.6024 32.0271V32.6159C18.6024 33.2047 19.0821 33.6757 19.6818 33.6757H28.3169C28.9165 33.6757 29.3962 33.2047 29.3962 32.6159V32.0271C29.3962 31.8701 29.4762 31.7523 29.5961 31.6738C30.5156 31.2028 31.3551 30.5748 32.0747 29.8682C32.9942 28.9654 33.7138 27.9056 34.2335 26.7673ZM34.6333 22.7243H13.4053C13.2454 22.7243 13.0855 22.8028 12.9656 22.9206C12.8456 23.0383 12.8057 23.1953 12.8057 23.3523C12.8856 24.2551 13.0855 25.1579 13.4053 25.9822H34.5933C34.9131 25.1187 35.113 24.2551 35.2329 23.3523C35.2329 23.1953 35.193 23.0383 35.073 22.9206C34.9531 22.8028 34.7932 22.7243 34.6333 22.7243ZM18.0827 13.5C18.3225 13.5 18.4824 13.657 18.4824 13.8925V18.5636C18.4824 18.7991 18.3225 18.9561 18.0827 18.9561C17.8428 18.9561 17.6829 18.7598 17.6829 18.5636V13.8925C17.6829 13.657 17.8428 13.5 18.0827 13.5ZM29.916 13.5C30.1558 13.5 30.3157 13.657 30.3157 13.8925V18.5636C30.3157 18.7991 30.1558 18.9561 29.916 18.9561C29.7161 18.9561 29.5162 18.7598 29.5162 18.5636V13.8925C29.5162 13.657 29.6761 13.5 29.916 13.5ZM23.9993 13.5C24.2392 13.5 24.3991 13.657 24.3991 13.8925V18.5636C24.3991 18.7991 24.2392 18.9561 23.9993 18.9561C23.7594 18.9561 23.5995 18.7598 23.5995 18.5636V13.8925C23.5995 13.657 23.7594 13.5 23.9993 13.5Z" fill="#3A5F56"/>
</g>
<defs>
<clipPath id="clip0_2_130">
<rect width="24" height="24" fill="white" transform="translate(12 12)"/>
</clipPath>
</defs>
</svg>
