<svg width="160" height="43" viewBox="0 0 160 43" fill="none" xmlns="http://www.w3.org/2000/svg">
<g clip-path="url(#clip0_2_202)">
<path fill-rule="evenodd" clip-rule="evenodd" d="M145.34 13.4294C150.862 13.4294 156.212 16.7605 158.661 22.3452C159.554 24.3778 160 26.4621 160 28.4946C160 34.1359 156.877 39.3866 151.638 41.7532C149.798 42.6048 147.906 43 146.01 43C140.432 43 135.083 39.6689 132.633 34.0841C131.792 32.0516 131.346 29.9626 131.346 27.8736C131.346 22.2888 134.413 16.9863 139.707 14.615C141.552 13.8246 143.444 13.4294 145.34 13.4294ZM11.987 0C12.4285 0 12.7074 0.169378 12.9909 0.508135L27.1996 29.6224L41.4175 0.508135C41.6964 0.169378 41.9752 0 42.4214 0H52.8978C53.4602 0 53.7344 0.282297 53.7344 0.846892V2.54068C53.7344 3.10527 53.4602 3.38286 52.8978 3.38286C51.6754 3.38286 50.5042 3.6087 49.4444 4.22975V33.5746C49.4444 36.6234 50.8388 38.9335 53.5671 38.9335C54.1249 38.9335 54.4084 39.2205 54.4084 39.7851V41.4742C54.4084 42.0388 54.1249 42.3211 53.5671 42.3211H39.8C39.298 42.3211 38.9634 42.0388 38.9634 41.4742V39.7851C38.9634 39.2205 39.298 38.9335 39.8 38.9335C42.533 38.9335 43.8716 36.6234 43.8716 33.5746V12.1858L30.7134 39.1641C30.546 39.5546 30.216 39.7851 29.7652 39.7851H24.6339C24.1924 39.7851 23.8577 39.5546 23.6346 39.1641L10.5322 12.1858V33.5746C10.5322 36.6234 11.8708 38.9335 14.6037 38.9335C15.1057 38.9335 15.4403 39.2205 15.4403 39.7851V41.4742C15.4403 42.0388 15.1057 42.3211 14.6037 42.3211H0.831975C0.278874 42.3211 0 42.0388 0 41.4742V39.7851C0 39.2205 0.278874 38.9335 0.831975 38.9335C3.56494 38.9335 4.95932 36.6234 4.95932 33.5746V4.22975C3.89959 3.6087 2.72832 3.38286 1.50592 3.38286C0.948173 3.38286 0.669299 3.10527 0.669299 2.54068V0.846892C0.669299 0.282297 0.948173 0 1.50592 0H11.987ZM68.149 12.359C68.2606 12.359 68.2606 12.359 68.3117 12.4154V33.5783C68.3117 36.6224 69.6549 38.9326 72.3832 38.9326H72.5552C73.113 38.9326 73.3872 39.2196 73.3872 39.7842V41.4732C73.3872 42.0378 72.9968 42.3201 72.439 42.3201H56.6687C56.1109 42.3201 55.7205 42.0378 55.7205 41.4732V39.7842C55.7205 39.2196 55.9947 38.9326 56.5525 38.9326H56.6687C59.397 38.9326 60.7356 36.6224 60.6798 33.5783V27.5936C60.6798 27.4781 60.6794 27.3615 60.6782 27.244L60.6759 27.0672C60.6362 24.643 60.2476 21.9293 57.3891 21.6136C56.8313 21.5572 56.7198 21.2702 56.7198 20.8749V18.96C56.7198 18.5084 56.9987 18.3954 57.5564 18.2261C63.4128 16.25 66.3084 14.0481 67.8143 12.4672C67.8701 12.4154 67.9817 12.359 68.0375 12.359H68.149ZM87.8891 12.3571C87.9495 12.3571 88.0053 12.3571 88.0053 12.4136L86.6667 20.0309C88.67 15.6882 92.5184 13.3734 96.4785 13.3734C99.9318 13.3734 102.772 15.3494 102.772 19.184C102.772 20.8778 102.665 22.2328 101.326 22.7974L96.088 24.9429C95.9207 25.0511 95.7534 25.0511 95.5861 25.0511C95.2514 25.0511 95.0841 24.8299 95.0841 24.5476C95.0841 24.3783 95.1399 24.2089 95.1956 24.0395C95.6372 22.9668 95.6976 22.007 95.6976 21.2165C95.6976 19.184 94.5821 18.2806 93.0808 18.2806C90.5152 18.2806 88.2795 21.1083 87.4987 23.1926V33.5764C87.4987 36.6206 88.8373 38.9354 91.5703 38.9354H91.6865C92.2396 38.9354 92.5184 39.2177 92.5184 39.7823V41.4761C92.5184 42.0407 92.2396 42.3183 91.6865 42.3183H75.4653C74.9029 42.3183 74.624 42.0407 74.624 41.4761V39.7823C74.624 39.2177 74.9029 38.9354 75.4653 38.9354H75.5722C78.3051 38.9354 79.6437 36.6206 79.6437 33.5764L79.6436 26.3628L79.6429 26.1629L79.6412 25.9629C79.6102 23.1286 79.2502 20.2988 76.353 19.9744C75.7953 19.9227 75.6837 19.6357 75.6837 19.2404V17.3255C75.6837 16.8691 75.9626 16.7045 76.5203 16.5916C81.819 15.7447 86.0532 13.5427 87.4987 12.47C87.6149 12.4136 87.666 12.3571 87.7822 12.3571H87.8891ZM116.167 12.3571C116.227 12.3571 116.283 12.3571 116.283 12.4136L114.945 20.0309C116.948 15.6882 120.796 13.3734 124.756 13.3734C128.21 13.3734 131.05 15.3494 131.05 19.184C131.05 20.8778 130.943 22.2328 129.604 22.7974L124.366 24.9429C124.199 25.0511 124.031 25.0511 123.864 25.0511C123.529 25.0511 123.362 24.8299 123.362 24.5476C123.362 24.3783 123.418 24.2089 123.474 24.0395C123.915 22.9668 123.975 22.007 123.975 21.2165C123.975 19.184 122.86 18.2806 121.359 18.2806C118.793 18.2806 116.557 21.1083 115.777 23.1926V33.5764C115.777 36.6206 117.115 38.9354 119.848 38.9354H119.964C120.517 38.9354 120.796 39.2177 120.796 39.7823V41.4761C120.796 42.0407 120.517 42.3183 119.964 42.3183H103.743C103.181 42.3183 102.902 42.0407 102.902 41.4761V39.7823C102.902 39.2177 103.181 38.9354 103.743 38.9354H103.85C106.583 38.9354 107.922 36.6206 107.922 33.5764V26.4626L107.921 26.1629C107.904 23.2632 107.596 20.3064 104.631 19.9744C104.073 19.9227 103.962 19.6357 103.962 19.2404V17.3255C103.962 16.8691 104.24 16.7045 104.798 16.5916C110.097 15.7447 114.331 13.5427 115.777 12.47C115.893 12.4136 115.944 12.3571 116.06 12.3571H116.167ZM143.611 17.9461C142.886 17.9461 142.106 18.1155 141.38 18.4495C138.926 19.527 137.983 21.7807 137.983 24.3778C137.983 26.4621 138.596 28.7816 139.545 30.9788C141.329 34.9875 144.276 38.4832 147.739 38.4832C148.464 38.4832 149.184 38.3139 149.965 37.9798C152.363 36.9024 153.312 34.6487 153.312 32.0516C153.312 29.9626 152.698 27.596 151.75 25.4505C150.021 21.4419 147.009 17.9461 143.611 17.9461ZM64.4167 0.563654C65.416 0.563654 66.1969 0.95887 67.2008 1.97514C68.2048 2.99141 68.5952 3.78184 68.5952 4.79341C68.5952 5.80968 68.2048 6.66128 67.2008 7.61638C66.1969 8.63265 65.416 9.02787 64.4167 9.02787C63.4128 9.02787 62.5715 8.63265 61.628 7.61638C60.624 6.66128 60.2336 5.80968 60.2336 4.79341C60.2336 3.78184 60.624 2.99141 61.628 1.97514C62.5715 0.95887 63.4128 0.563654 64.4167 0.563654Z" fill="white"/>
</g>
<defs>
<clipPath id="clip0_2_202">
<rect width="160" height="43" fill="white"/>
</clipPath>
</defs>
</svg>
