<svg width="122" height="44" viewBox="0 0 122 44" fill="none" xmlns="http://www.w3.org/2000/svg">
<path d="M0 6C0 2.68629 2.68629 0 6 0H116C119.314 0 122 2.68629 122 6V38C122 41.3137 119.314 44 116 44H6C2.68629 44 0 41.3137 0 38V6Z" fill="#3A5F56"/>
<path d="M85 22C85 17.0294 89.0294 13 94 13H95C99.9706 13 104 17.0294 104 22C104 26.9706 99.9706 31 95 31H94C89.0294 31 85 26.9706 85 22Z" fill="white"/>
<path d="M96.9653 21.4668V22.6592C96.9653 23.3001 96.908 23.8408 96.7935 24.2812C96.6789 24.7217 96.5142 25.0762 96.2993 25.3447C96.0845 25.6133 95.8249 25.8084 95.5205 25.9302C95.2197 26.0483 94.8796 26.1074 94.5 26.1074C94.1992 26.1074 93.9217 26.0698 93.6675 25.9946C93.4132 25.9194 93.1841 25.7995 92.98 25.6348C92.7795 25.4665 92.6076 25.248 92.4644 24.9795C92.3211 24.7109 92.2119 24.3851 92.1367 24.002C92.0615 23.6188 92.0239 23.1712 92.0239 22.6592V21.4668C92.0239 20.8258 92.0812 20.2887 92.1958 19.8555C92.314 19.4222 92.4805 19.0749 92.6953 18.8135C92.9102 18.5485 93.168 18.3587 93.4688 18.2441C93.7731 18.1296 94.1133 18.0723 94.4893 18.0723C94.7936 18.0723 95.0729 18.1099 95.3271 18.1851C95.585 18.2567 95.8141 18.373 96.0146 18.5342C96.2152 18.6917 96.3853 18.903 96.5249 19.168C96.6681 19.4294 96.7773 19.7498 96.8525 20.1294C96.9277 20.509 96.9653 20.9548 96.9653 21.4668ZM95.9663 22.8203V21.3003C95.9663 20.9494 95.9448 20.6414 95.9019 20.3765C95.8625 20.1079 95.8034 19.8787 95.7246 19.689C95.6458 19.4992 95.5456 19.3452 95.4238 19.2271C95.3057 19.1089 95.1678 19.0229 95.0103 18.9692C94.8563 18.9119 94.6826 18.8833 94.4893 18.8833C94.2529 18.8833 94.0435 18.9281 93.8608 19.0176C93.6782 19.1035 93.5243 19.2414 93.3989 19.4312C93.2772 19.6209 93.1841 19.8698 93.1196 20.1777C93.0552 20.4857 93.0229 20.8599 93.0229 21.3003V22.8203C93.0229 23.1712 93.0426 23.481 93.082 23.7495C93.125 24.0181 93.1877 24.2508 93.27 24.4478C93.3524 24.6411 93.4526 24.8005 93.5708 24.9258C93.689 25.0511 93.825 25.1442 93.979 25.2051C94.1366 25.2624 94.3102 25.291 94.5 25.291C94.7435 25.291 94.9565 25.2445 95.1392 25.1514C95.3218 25.0583 95.474 24.9132 95.5957 24.7163C95.721 24.5158 95.8141 24.2598 95.875 23.9482C95.9359 23.6331 95.9663 23.2572 95.9663 22.8203Z" fill="#3A5F56"/>
<path d="M51.1875 23.3828H52.6875C52.6094 24.1016 52.4036 24.7448 52.0703 25.3125C51.737 25.8802 51.2656 26.3307 50.6562 26.6641C50.0469 26.9922 49.2865 27.1562 48.375 27.1562C47.7083 27.1562 47.1016 27.0312 46.5547 26.7812C46.013 26.5312 45.5469 26.1771 45.1562 25.7188C44.7656 25.2552 44.4635 24.7005 44.25 24.0547C44.0417 23.4036 43.9375 22.6797 43.9375 21.8828V20.75C43.9375 19.9531 44.0417 19.2318 44.25 18.5859C44.4635 17.9349 44.7682 17.3776 45.1641 16.9141C45.5651 16.4505 46.0469 16.0938 46.6094 15.8438C47.1719 15.5938 47.8047 15.4688 48.5078 15.4688C49.3672 15.4688 50.0938 15.6302 50.6875 15.9531C51.2812 16.276 51.7422 16.724 52.0703 17.2969C52.4036 17.8646 52.6094 18.5234 52.6875 19.2734H51.1875C51.1146 18.7422 50.9792 18.2865 50.7812 17.9062C50.5833 17.5208 50.3021 17.224 49.9375 17.0156C49.5729 16.8073 49.0964 16.7031 48.5078 16.7031C48.0026 16.7031 47.5573 16.7995 47.1719 16.9922C46.7917 17.1849 46.4714 17.4583 46.2109 17.8125C45.9557 18.1667 45.763 18.5911 45.6328 19.0859C45.5026 19.5807 45.4375 20.1302 45.4375 20.7344V21.8828C45.4375 22.4401 45.4948 22.9635 45.6094 23.4531C45.7292 23.9427 45.9089 24.3724 46.1484 24.7422C46.388 25.112 46.6927 25.4036 47.0625 25.6172C47.4323 25.8255 47.8698 25.9297 48.375 25.9297C49.0156 25.9297 49.526 25.8281 49.9062 25.625C50.2865 25.4219 50.5729 25.1302 50.7656 24.75C50.9635 24.3698 51.1042 23.9141 51.1875 23.3828ZM59.5078 25.5547V21.2031C59.5078 20.8698 59.4401 20.5807 59.3047 20.3359C59.1745 20.0859 58.9766 19.8932 58.7109 19.7578C58.4453 19.6224 58.1172 19.5547 57.7266 19.5547C57.362 19.5547 57.0417 19.6172 56.7656 19.7422C56.4948 19.8672 56.2812 20.0312 56.125 20.2344C55.974 20.4375 55.8984 20.6562 55.8984 20.8906H54.4531C54.4531 20.5885 54.5312 20.2891 54.6875 19.9922C54.8438 19.6953 55.0677 19.4271 55.3594 19.1875C55.6562 18.9427 56.0104 18.75 56.4219 18.6094C56.8385 18.4635 57.3021 18.3906 57.8125 18.3906C58.4271 18.3906 58.9688 18.4948 59.4375 18.7031C59.9115 18.9115 60.2812 19.2266 60.5469 19.6484C60.8177 20.0651 60.9531 20.5885 60.9531 21.2188V25.1562C60.9531 25.4375 60.9766 25.737 61.0234 26.0547C61.0755 26.3724 61.151 26.6458 61.25 26.875V27H59.7422C59.6693 26.8333 59.612 26.612 59.5703 26.3359C59.5286 26.0547 59.5078 25.7943 59.5078 25.5547ZM59.7578 21.875L59.7734 22.8906H58.3125C57.901 22.8906 57.5339 22.9245 57.2109 22.9922C56.888 23.0547 56.6172 23.151 56.3984 23.2812C56.1797 23.4115 56.013 23.5755 55.8984 23.7734C55.7839 23.9661 55.7266 24.1927 55.7266 24.4531C55.7266 24.7188 55.7865 24.9609 55.9062 25.1797C56.026 25.3984 56.2057 25.5729 56.4453 25.7031C56.6901 25.8281 56.9896 25.8906 57.3438 25.8906C57.7865 25.8906 58.1771 25.7969 58.5156 25.6094C58.8542 25.4219 59.1224 25.1927 59.3203 24.9219C59.5234 24.651 59.6328 24.388 59.6484 24.1328L60.2656 24.8281C60.2292 25.0469 60.1302 25.2891 59.9688 25.5547C59.8073 25.8203 59.5911 26.0755 59.3203 26.3203C59.0547 26.5599 58.737 26.7604 58.3672 26.9219C58.0026 27.0781 57.5911 27.1562 57.1328 27.1562C56.5599 27.1562 56.0573 27.0443 55.625 26.8203C55.1979 26.5964 54.8646 26.2969 54.625 25.9219C54.3906 25.5417 54.2734 25.1172 54.2734 24.6484C54.2734 24.1953 54.362 23.7969 54.5391 23.4531C54.7161 23.1042 54.9714 22.8151 55.3047 22.5859C55.638 22.3516 56.0391 22.1745 56.5078 22.0547C56.9766 21.9349 57.5 21.875 58.0781 21.875H59.7578ZM64.6719 19.875V27H63.2266V18.5469H64.6328L64.6719 19.875ZM67.3125 18.5L67.3047 19.8438C67.1849 19.8177 67.0703 19.8021 66.9609 19.7969C66.8568 19.7865 66.737 19.7812 66.6016 19.7812C66.2682 19.7812 65.974 19.8333 65.7188 19.9375C65.4635 20.0417 65.2474 20.1875 65.0703 20.375C64.8932 20.5625 64.7526 20.7865 64.6484 21.0469C64.5495 21.3021 64.4844 21.5833 64.4531 21.8906L64.0469 22.125C64.0469 21.6146 64.0964 21.1354 64.1953 20.6875C64.2995 20.2396 64.4583 19.8438 64.6719 19.5C64.8854 19.151 65.1562 18.8802 65.4844 18.6875C65.8177 18.4896 66.2135 18.3906 66.6719 18.3906C66.776 18.3906 66.8958 18.4036 67.0312 18.4297C67.1667 18.4505 67.2604 18.474 67.3125 18.5ZM72.5781 18.5469V19.6562H68.0078V18.5469H72.5781ZM69.5547 16.4922H71V24.9062C71 25.1927 71.0443 25.4089 71.1328 25.5547C71.2214 25.7005 71.3359 25.7969 71.4766 25.8438C71.6172 25.8906 71.7682 25.9141 71.9297 25.9141C72.0495 25.9141 72.1745 25.9036 72.3047 25.8828C72.4401 25.8568 72.5417 25.8359 72.6094 25.8203L72.6172 27C72.5026 27.0365 72.3516 27.0703 72.1641 27.1016C71.9818 27.138 71.7604 27.1562 71.5 27.1562C71.1458 27.1562 70.8203 27.0859 70.5234 26.9453C70.2266 26.8047 69.9896 26.5703 69.8125 26.2422C69.6406 25.9089 69.5547 25.4609 69.5547 24.8984V16.4922Z" fill="white"/>
<g clip-path="url(#clip0_2_27)">
<path d="M20.6059 16H18V14H22.3941L22.8429 18H34V23.9384L21.7694 26.3694L20.6059 16ZM33.5 31C32.6716 31 32 30.3284 32 29.5C32 28.6716 32.6716 28 33.5 28C34.3284 28 35 28.6716 35 29.5C35 30.3284 34.3284 31 33.5 31ZM23.5 31C22.6716 31 22 30.3284 22 29.5C22 28.6716 22.6716 28 23.5 28C24.3284 28 25 28.6716 25 29.5C25 30.3284 24.3284 31 23.5 31Z" fill="black"/>
</g>
<defs>
<clipPath id="clip0_2_27">
<rect width="17" height="17" fill="white" transform="translate(18 14)"/>
</clipPath>
</defs>
</svg>
